<svg id="SvgjsSvg1006" width="1257.0124816894531" height="1760.2125091552734" xmlns="http://www.w3.org/2000/svg" version="1.1" xmlns:xlink="http://www.w3.org/1999/xlink" xmlns:svgjs="http://svgjs.com/svgjs"><defs id="SvgjsDefs1007"><marker id="SvgjsMarker1049" markerWidth="16" markerHeight="12" refX="16" refY="6" viewBox="0 0 16 12" orient="auto" markerUnits="userSpaceOnUse"><path id="SvgjsPath1050" d="M0,2 L14,6 L0,11 L0,2" fill="#323232" stroke="#323232" stroke-width="2"></path></marker><marker id="SvgjsMarker1059" markerWidth="16" markerHeight="12" refX="16" refY="6" viewBox="0 0 16 12" orient="auto" markerUnits="userSpaceOnUse"><path id="SvgjsPath1060" d="M0,2 L14,6 L0,11 L0,2" fill="#323232" stroke="#323232" stroke-width="2"></path></marker><marker id="SvgjsMarker1069" markerWidth="16" markerHeight="12" refX="16" refY="6" viewBox="0 0 16 12" orient="auto" markerUnits="userSpaceOnUse"><path id="SvgjsPath1070" d="M0,2 L14,6 L0,11 L0,2" fill="#323232" stroke="#323232" stroke-width="2"></path></marker><marker id="SvgjsMarker1079" markerWidth="16" markerHeight="12" refX="16" refY="6" viewBox="0 0 16 12" orient="auto" markerUnits="userSpaceOnUse"><path id="SvgjsPath1080" d="M0,2 L14,6 L0,11 L0,2" fill="#323232" stroke="#323232" stroke-width="2"></path></marker><marker id="SvgjsMarker1093" markerWidth="16" markerHeight="12" refX="16" refY="6" viewBox="0 0 16 12" orient="auto" markerUnits="userSpaceOnUse"><path id="SvgjsPath1094" d="M0,2 L14,6 L0,11 L0,2" fill="#323232" stroke="#323232" stroke-width="2"></path></marker><marker id="SvgjsMarker1107" markerWidth="16" markerHeight="12" refX="16" refY="6" viewBox="0 0 16 12" orient="auto" markerUnits="userSpaceOnUse"><path id="SvgjsPath1108" d="M0,2 L14,6 L0,11 L0,2" fill="#323232" stroke="#323232" stroke-width="2"></path></marker><marker id="SvgjsMarker1121" markerWidth="16" markerHeight="12" refX="16" refY="6" viewBox="0 0 16 12" orient="auto" markerUnits="userSpaceOnUse"><path id="SvgjsPath1122" d="M0,2 L14,6 L0,11 L0,2" fill="#323232" stroke="#323232" stroke-width="2"></path></marker><marker id="SvgjsMarker1133" markerWidth="16" markerHeight="12" refX="16" refY="6" viewBox="0 0 16 12" orient="auto" markerUnits="userSpaceOnUse"><path id="SvgjsPath1134" d="M0,2 L14,6 L0,11 L0,2" fill="#323232" stroke="#323232" stroke-width="2"></path></marker><marker id="SvgjsMarker1141" markerWidth="16" markerHeight="12" refX="16" refY="6" viewBox="0 0 16 12" orient="auto" markerUnits="userSpaceOnUse"><path id="SvgjsPath1142" d="M0,2 L14,6 L0,11 L0,2" fill="#323232" stroke="#323232" stroke-width="2"></path></marker><marker id="SvgjsMarker1149" markerWidth="16" markerHeight="12" refX="16" refY="6" viewBox="0 0 16 12" orient="auto" markerUnits="userSpaceOnUse"><path id="SvgjsPath1150" d="M0,2 L14,6 L0,11 L0,2" fill="#323232" stroke="#323232" stroke-width="2"></path></marker><marker id="SvgjsMarker1163" markerWidth="16" markerHeight="12" refX="16" refY="6" viewBox="0 0 16 12" orient="auto" markerUnits="userSpaceOnUse"><path id="SvgjsPath1164" d="M0,2 L14,6 L0,11 L0,2" fill="#323232" stroke="#323232" stroke-width="2"></path></marker><marker id="SvgjsMarker1173" markerWidth="16" markerHeight="12" refX="16" refY="6" viewBox="0 0 16 12" orient="auto" markerUnits="userSpaceOnUse"><path id="SvgjsPath1174" d="M0,2 L14,6 L0,11 L0,2" fill="#323232" stroke="#323232" stroke-width="2"></path></marker><marker id="SvgjsMarker1183" markerWidth="16" markerHeight="12" refX="16" refY="6" viewBox="0 0 16 12" orient="auto" markerUnits="userSpaceOnUse"><path id="SvgjsPath1184" d="M0,2 L14,6 L0,11 L0,2" fill="#323232" stroke="#323232" stroke-width="2"></path></marker><marker id="SvgjsMarker1193" markerWidth="16" markerHeight="12" refX="16" refY="6" viewBox="0 0 16 12" orient="auto" markerUnits="userSpaceOnUse"><path id="SvgjsPath1194" d="M0,2 L14,6 L0,11 L0,2" fill="#323232" stroke="#323232" stroke-width="2"></path></marker><marker id="SvgjsMarker1203" markerWidth="16" markerHeight="12" refX="16" refY="6" viewBox="0 0 16 12" orient="auto" markerUnits="userSpaceOnUse"><path id="SvgjsPath1204" d="M0,2 L14,6 L0,11 L0,2" fill="#323232" stroke="#323232" stroke-width="2"></path></marker><marker id="SvgjsMarker1215" markerWidth="16" markerHeight="12" refX="16" refY="6" viewBox="0 0 16 12" orient="auto" markerUnits="userSpaceOnUse"><path id="SvgjsPath1216" d="M0,2 L14,6 L0,11 L0,2" fill="#323232" stroke="#323232" stroke-width="2"></path></marker><marker id="SvgjsMarker1225" markerWidth="16" markerHeight="12" refX="16" refY="6" viewBox="0 0 16 12" orient="auto" markerUnits="userSpaceOnUse"><path id="SvgjsPath1226" d="M0,2 L14,6 L0,11 L0,2" fill="#323232" stroke="#323232" stroke-width="2"></path></marker><marker id="SvgjsMarker1235" markerWidth="16" markerHeight="12" refX="16" refY="6" viewBox="0 0 16 12" orient="auto" markerUnits="userSpaceOnUse"><path id="SvgjsPath1236" d="M0,2 L14,6 L0,11 L0,2" fill="#323232" stroke="#323232" stroke-width="2"></path></marker><marker id="SvgjsMarker1243" markerWidth="16" markerHeight="12" refX="16" refY="6" viewBox="0 0 16 12" orient="auto" markerUnits="userSpaceOnUse"><path id="SvgjsPath1244" d="M0,2 L14,6 L0,11 L0,2" fill="#323232" stroke="#323232" stroke-width="2"></path></marker><marker id="SvgjsMarker1259" markerWidth="16" markerHeight="12" refX="16" refY="6" viewBox="0 0 16 12" orient="auto" markerUnits="userSpaceOnUse"><path id="SvgjsPath1260" d="M0,2 L14,6 L0,11 L0,2" fill="#323232" stroke="#323232" stroke-width="2"></path></marker></defs><g id="SvgjsG1008" transform="translate(25.012481689453125,123.2125015258789)"><path id="SvgjsPath1009" d="M 42.5 30L 42.5 1611.8000259399414" stroke-dasharray="3,4" stroke="#323232" stroke-width="2" fill="none"></path><path id="SvgjsPath1010" d="M 0 0L 85 0L 85 30L 0 30Z" stroke="#323232" stroke-width="2" fill-opacity="1" fill="#ffffff"></path><g id="SvgjsG1011"><text id="SvgjsText1012" font-family="微软雅黑" text-anchor="middle" font-size="13px" width="26" fill="#323232" font-weight="400" align="middle" anchor="middle" family="微软雅黑" size="13px" weight="400" font-style="" y="5.05" transform="rotate(0)"><tspan id="SvgjsTspan1013" dy="16" x="42.5"><tspan id="SvgjsTspan1014" style="text-decoration:;">用户</tspan></tspan></text></g></g><g id="SvgjsG1015" transform="translate(249.01248168945312,123.2125015258789)"><path id="SvgjsPath1016" d="M 44 30L 44 1611.8000259399414" stroke-dasharray="3,4" stroke="#323232" stroke-width="2" fill="none"></path><path id="SvgjsPath1017" d="M 0 0L 88 0L 88 30L 0 30Z" stroke="#323232" stroke-width="2" fill-opacity="1" fill="#ffffff"></path><g id="SvgjsG1018"><text id="SvgjsText1019" font-family="微软雅黑" text-anchor="middle" font-size="13px" width="26" fill="#323232" font-weight="400" align="middle" anchor="middle" family="微软雅黑" size="13px" weight="400" font-style="" y="5.05" transform="rotate(0)"><tspan id="SvgjsTspan1020" dy="16" x="44"><tspan id="SvgjsTspan1021" style="text-decoration:;">网关</tspan></tspan></text></g></g><g id="SvgjsG1022" transform="translate(503.0124816894531,123.2125015258789)"><path id="SvgjsPath1023" d="M 44 30L 44 1611.8000259399414" stroke-dasharray="3,4" stroke="#323232" stroke-width="2" fill="none"></path><path id="SvgjsPath1024" d="M 0 0L 88 0L 88 30L 0 30Z" stroke="#323232" stroke-width="2" fill-opacity="1" fill="#ffffff"></path><g id="SvgjsG1025"><text id="SvgjsText1026" font-family="微软雅黑" text-anchor="middle" font-size="13px" width="34" fill="#323232" font-weight="400" align="middle" anchor="middle" family="微软雅黑" size="13px" weight="400" font-style="" y="-2.95" transform="rotate(0)"><tspan id="SvgjsTspan1027" dy="16" x="44"><tspan id="SvgjsTspan1028" style="text-decoration:;">应用1</tspan></tspan><tspan id="SvgjsTspan1029" dy="16" x="44"><tspan id="SvgjsTspan1030" style="text-decoration:;">test1</tspan></tspan></text></g></g><g id="SvgjsG1031" transform="translate(747.0124816894531,123.2125015258789)"><path id="SvgjsPath1032" d="M 40.5 30L 40.5 1601.0000381469727" stroke-dasharray="3,4" stroke="#323232" stroke-width="2" fill="none"></path><path id="SvgjsPath1033" d="M 0 0L 81 0L 81 30L 0 30Z" stroke="#323232" stroke-width="2" fill-opacity="1" fill="#ffffff"></path><g id="SvgjsG1034"><text id="SvgjsText1035" font-family="微软雅黑" text-anchor="middle" font-size="13px" width="34" fill="#323232" font-weight="400" align="middle" anchor="middle" family="微软雅黑" size="13px" weight="400" font-style="" y="-2.95" transform="rotate(0)"><tspan id="SvgjsTspan1036" dy="16" x="40.5"><tspan id="SvgjsTspan1037" style="text-decoration:;">应用2</tspan></tspan><tspan id="SvgjsTspan1038" dy="16" x="40.5"><tspan id="SvgjsTspan1039" style="text-decoration:;">test2</tspan></tspan></text></g></g><g id="SvgjsG1040" transform="translate(1093.0124816894531,123.2125015258789)"><path id="SvgjsPath1041" d="M 51 30L 51 1572.8000259399414" stroke-dasharray="3,4" stroke="#323232" stroke-width="2" fill="none"></path><path id="SvgjsPath1042" d="M 0 0L 102 0L 102 30L 0 30Z" stroke="#323232" stroke-width="2" fill-opacity="1" fill="#ffffff"></path><g id="SvgjsG1043"><text id="SvgjsText1044" font-family="微软雅黑" text-anchor="middle" font-size="13px" width="52" fill="#323232" font-weight="400" align="middle" anchor="middle" family="微软雅黑" size="13px" weight="400" font-style="" y="5.05" transform="rotate(0)"><tspan id="SvgjsTspan1045" dy="16" x="51"><tspan id="SvgjsTspan1046" style="text-decoration:;">认证中心</tspan></tspan></text></g></g><g id="SvgjsG1047"><path id="SvgjsPath1048" d="M68.01248168945312 195.21249389648438L179.01248168945312 195.21249389648438L179.01248168945312 195.21249389648438L290.0124816894531 195.21249389648438" stroke="#323232" stroke-width="2" fill="none" marker-end="url(#SvgjsMarker1049)"></path><rect id="SvgjsRect1051" width="162" height="16" x="98.01248168945312" y="187.21249389648438" fill="#ffffff"></rect><text id="SvgjsText1052" font-family="微软雅黑" text-anchor="middle" font-size="13px" width="162" fill="#323232" font-weight="400" align="top" anchor="middle" family="微软雅黑" size="13px" weight="400" font-style="" y="185.2624938964844" transform="rotate(0)"><tspan id="SvgjsTspan1053" dy="16" x="179.01248168945312"><tspan id="SvgjsTspan1054" style="text-decoration:;">localhost:6001/test1/hello</tspan></tspan></text></g><g id="SvgjsG1055" transform="translate(278.0124816894531,208.21249389648438)"><path id="SvgjsPath1056" d="M 0 4Q 0 0 4 0L 26 0Q 30 0 30 4L 30 96Q 30 100 26 100L 4 100Q 0 100 0 96L 0 4Z" stroke="#323232" stroke-width="2" fill-opacity="1" fill="#ffffff"></path></g><g id="SvgjsG1057"><path id="SvgjsPath1058" d="M308.0124816894531 232.21249389648438L338.0124816894531 232.21249389648438L338.0124816894531 295.2124938964844L308.0124816894531 295.2124938964844" stroke="#323232" stroke-width="2" fill="none" marker-end="url(#SvgjsMarker1059)"></path><rect id="SvgjsRect1061" width="93" height="32" x="291.5124816894531" y="247.71249389648438" fill="#ffffff"></rect><text id="SvgjsText1062" font-family="微软雅黑" text-anchor="middle" font-size="13px" width="93" fill="#323232" font-weight="400" align="top" anchor="middle" family="微软雅黑" size="13px" weight="400" font-style="" y="245.7624938964844" transform="rotate(0)"><tspan id="SvgjsTspan1063" dy="16" x="338.0124816894531"><tspan id="SvgjsTspan1064" style="text-decoration:;">通过cookie校验</tspan></tspan><tspan id="SvgjsTspan1065" dy="16" x="338.0124816894531"><tspan id="SvgjsTspan1066" style="text-decoration:;">是否已经登录</tspan></tspan></text></g><g id="SvgjsG1067"><path id="SvgjsPath1068" d="M294.0124816894531 324.2124938964844L708.0124816894531 324.2124938964844L708.0124816894531 315.06249504089357L1122.0124816894531 315.06249504089357" stroke="#323232" stroke-width="2" fill="none" marker-end="url(#SvgjsMarker1069)"></path><rect id="SvgjsRect1071" width="187" height="16" x="614.5124816894531" y="311.63749446868894" fill="#ffffff"></rect><text id="SvgjsText1072" font-family="微软雅黑" text-anchor="middle" font-size="13px" width="187" fill="#323232" font-weight="400" align="top" anchor="middle" family="微软雅黑" size="13px" weight="400" font-style="" y="309.68749446868895" transform="rotate(0)"><tspan id="SvgjsTspan1073" dy="16" x="708.0124816894531"><tspan id="SvgjsTspan1074" style="text-decoration:;">未认证/跳转到认证中心进行认证</tspan></tspan></text></g><g id="SvgjsG1075" transform="translate(1122.0124816894531,300.2124938964844)"><path id="SvgjsPath1076" d="M 0 4Q 0 0 4 0L 26 0Q 30 0 30 4L 30 95.00000762939453Q 30 99.00000762939453 26 99.00000762939453L 4 99.00000762939453Q 0 99.00000762939453 0 95.00000762939453L 0 4Z" stroke="#323232" stroke-width="2" fill-opacity="1" fill="#ffffff"></path></g><g id="SvgjsG1077"><path id="SvgjsPath1078" d="M1152.0124816894531 316.0525026702887L1182.0124816894531 316.0525026702887L1182.0124816894531 372.0124969482422L1152.0124816894531 372.0124969482422" stroke="#323232" stroke-width="2" fill="none" marker-end="url(#SvgjsMarker1079)"></path><rect id="SvgjsRect1081" width="104" height="48" x="1130.0124816894531" y="320.03249980926546" fill="#ffffff"></rect><text id="SvgjsText1082" font-family="微软雅黑" text-anchor="middle" font-size="13px" width="104" fill="#323232" font-weight="400" align="top" anchor="middle" family="微软雅黑" size="13px" weight="400" font-style="" y="318.08249980926547" transform="rotate(0)"><tspan id="SvgjsTspan1083" dy="16" x="1182.0124816894531"><tspan id="SvgjsTspan1084" style="text-decoration:;">通过cookie</tspan></tspan><tspan id="SvgjsTspan1085" dy="16" x="1182.0124816894531"><tspan id="SvgjsTspan1086" style="text-decoration:;">去认证中心TGT中</tspan></tspan><tspan id="SvgjsTspan1087" dy="16" x="1182.0124816894531"><tspan id="SvgjsTspan1088" style="text-decoration:;">查询是否已经登录</tspan></tspan></text></g><g id="SvgjsG1089" transform="translate(1122.0124816894531,428.2125015258789)"><path id="SvgjsPath1090" d="M 0 4Q 0 0 4 0L 26 0Q 30 0 30 4L 30 96Q 30 100 26 100L 4 100Q 0 100 0 96L 0 4Z" stroke="#323232" stroke-width="2" fill-opacity="1" fill="#ffffff"></path></g><g id="SvgjsG1091"><path id="SvgjsPath1092" d="M1152.0124816894531 449.2125015258789L1182.0124816894531 449.2125015258789L1182.0124816894531 505.2125015258789L1152.0124816894531 505.2125015258789" stroke="#323232" stroke-width="2" fill="none" marker-end="url(#SvgjsMarker1093)"></path><rect id="SvgjsRect1095" width="91" height="48" x="1136.5124816894531" y="453.2125015258789" fill="#ffffff"></rect><text id="SvgjsText1096" font-family="微软雅黑" text-anchor="middle" font-size="13px" width="91" fill="#323232" font-weight="400" align="top" anchor="middle" family="微软雅黑" size="13px" weight="400" font-style="" y="451.2625015258789" transform="rotate(0)"><tspan id="SvgjsTspan1097" dy="16" x="1182.0124816894531"><tspan id="SvgjsTspan1098" style="text-decoration:;">未登录</tspan></tspan><tspan id="SvgjsTspan1099" dy="16" x="1182.0124816894531"><tspan id="SvgjsTspan1100" style="text-decoration:;">跳转到登录页面</tspan></tspan><tspan id="SvgjsTspan1101" dy="16" x="1182.0124816894531"><tspan id="SvgjsTspan1102" style="text-decoration:;">登录</tspan></tspan></text></g><g id="SvgjsG1103" transform="translate(1122.0124816894531,543.2125053405762)"><path id="SvgjsPath1104" d="M 0 4Q 0 0 4 0L 26 0Q 30 0 30 4L 30 96Q 30 100 26 100L 4 100Q 0 100 0 96L 0 4Z" stroke="#323232" stroke-width="2" fill-opacity="1" fill="#ffffff"></path></g><g id="SvgjsG1105"><path id="SvgjsPath1106" d="M1152.0124816894531 566.2125053405762L1182.0124816894531 566.2125053405762L1182.0124816894531 619.2125053405762L1152.0124816894531 619.2125053405762" stroke="#323232" stroke-width="2" fill="none" marker-end="url(#SvgjsMarker1107)"></path><rect id="SvgjsRect1109" width="118" height="64" x="1123.0124816894531" y="560.7125053405762" fill="#ffffff"></rect><text id="SvgjsText1110" font-family="微软雅黑" text-anchor="middle" font-size="13px" width="118" fill="#323232" font-weight="400" align="top" anchor="middle" family="微软雅黑" size="13px" weight="400" font-style="" y="558.7625053405761" transform="rotate(0)"><tspan id="SvgjsTspan1111" dy="16" x="1182.0124816894531"><tspan id="SvgjsTspan1112" style="text-decoration:;">登录成功</tspan></tspan><tspan id="SvgjsTspan1113" dy="16" x="1182.0124816894531"><tspan id="SvgjsTspan1114" style="text-decoration:;">1. 保存cookie</tspan></tspan><tspan id="SvgjsTspan1115" dy="16" x="1182.0124816894531"><tspan id="SvgjsTspan1116" style="text-decoration:;">2. 保存TGT</tspan></tspan><tspan id="SvgjsTspan1117" dy="16" x="1182.0124816894531"><tspan id="SvgjsTspan1118" style="text-decoration:;">3. 重定向回网关服务</tspan></tspan></text></g><g id="SvgjsG1119"><path id="SvgjsPath1120" d="M1122.0124816894531 618.2125015258789L715.0124816894531 618.2125015258789L715.0124816894531 618.2125091552734L308.0124816894531 618.2125091552734" stroke="#323232" stroke-width="2" fill="none" marker-end="url(#SvgjsMarker1121)"></path><rect id="SvgjsRect1123" width="166" height="16" x="632.0124816894531" y="610.2125015258789" fill="#ffffff"></rect><text id="SvgjsText1124" font-family="微软雅黑" text-anchor="middle" font-size="13px" width="166" fill="#323232" font-weight="400" align="top" anchor="middle" family="微软雅黑" size="13px" weight="400" font-style="" y="608.2625015258789" transform="rotate(0)"><tspan id="SvgjsTspan1125" dy="16" x="715.0124816894531"><tspan id="SvgjsTspan1126" style="text-decoration:;">并且携带ticket信息：即：ST</tspan></tspan></text></g><g id="SvgjsG1127" transform="translate(278.0124816894531,578.2125015258789)"><path id="SvgjsPath1128" d="M 0 4Q 0 0 4 0L 26 0Q 30 0 30 4L 30 405.00000762939453Q 30 409.00000762939453 26 409.00000762939453L 4 409.00000762939453Q 0 409.00000762939453 0 405.00000762939453L 0 4Z" stroke="#323232" stroke-width="2" fill-opacity="1" fill="#ffffff"></path></g><g id="SvgjsG1129" transform="translate(1126.0124816894531,662.2125015258789)"><path id="SvgjsPath1130" d="M 0 4Q 0 0 4 0L 26 0Q 30 0 30 4L 30 96Q 30 100 26 100L 4 100Q 0 100 0 96L 0 4Z" stroke="#323232" stroke-width="2" fill-opacity="1" fill="#ffffff"></path></g><g id="SvgjsG1131"><path id="SvgjsPath1132" d="M308.0124816894531 679.2125091552734L717.0124816894531 679.2125091552734L717.0124816894531 685.2125015258789L1126.0124816894531 685.2125015258789" stroke="#323232" stroke-width="2" fill="none" marker-end="url(#SvgjsMarker1133)"></path><rect id="SvgjsRect1135" width="112" height="16" x="661.0124816894531" y="674.2125053405762" fill="#ffffff"></rect><text id="SvgjsText1136" font-family="微软雅黑" text-anchor="middle" font-size="13px" width="112" fill="#323232" font-weight="400" align="top" anchor="middle" family="微软雅黑" size="13px" weight="400" font-style="" y="672.2625053405761" transform="rotate(0)"><tspan id="SvgjsTspan1137" dy="16" x="717.0124816894531"><tspan id="SvgjsTspan1138" style="text-decoration:;">拿着ticket去获校验</tspan></tspan></text></g><g id="SvgjsG1139"><path id="SvgjsPath1140" d="M1126.0124816894531 722.2125015258789L717.0124816894531 722.2125015258789L717.0124816894531 718.2125091552734L308.0124816894531 718.2125091552734" stroke-dasharray="3,3" stroke="#323232" stroke-width="2" fill="none" marker-end="url(#SvgjsMarker1141)"></path><rect id="SvgjsRect1143" width="87" height="16" x="673.5124816894531" y="712.2125053405762" fill="#ffffff"></rect><text id="SvgjsText1144" font-family="微软雅黑" text-anchor="middle" font-size="13px" width="87" fill="#323232" font-weight="400" align="top" anchor="middle" family="微软雅黑" size="13px" weight="400" font-style="" y="710.2625053405761" transform="rotate(0)"><tspan id="SvgjsTspan1145" dy="16" x="717.0124816894531"><tspan id="SvgjsTspan1146" style="text-decoration:;">返回username</tspan></tspan></text></g><g id="SvgjsG1147"><path id="SvgjsPath1148" d="M308.0124816894531 753.2125091552734L338.0124816894531 753.2125091552734L338.0124816894531 871.2125091552734L308.0124816894531 871.2125091552734" stroke="#323232" stroke-width="2" fill="none" marker-end="url(#SvgjsMarker1149)"></path><rect id="SvgjsRect1151" width="156" height="64" x="260.0124816894531" y="780.2125091552734" fill="#ffffff"></rect><text id="SvgjsText1152" font-family="微软雅黑" text-anchor="middle" font-size="13px" width="156" fill="#323232" font-weight="400" align="top" anchor="middle" family="微软雅黑" size="13px" weight="400" font-style="" y="778.2625091552734" transform="rotate(0)"><tspan id="SvgjsTspan1153" dy="16" x="338.0124816894531"><tspan id="SvgjsTspan1154" style="text-decoration:;">在userdetailService中</tspan></tspan><tspan id="SvgjsTspan1155" dy="16" x="338.0124816894531"><tspan id="SvgjsTspan1156" style="text-decoration:;">可以获取username,</tspan></tspan><tspan id="SvgjsTspan1157" dy="16" x="338.0124816894531"><tspan id="SvgjsTspan1158" style="text-decoration:;">如果想要获取用户更多信息</tspan></tspan><tspan id="SvgjsTspan1159" dy="16" x="338.0124816894531"><tspan id="SvgjsTspan1160" style="text-decoration:;">可以插叙你数据库</tspan></tspan></text></g><g id="SvgjsG1161"><path id="SvgjsPath1162" d="M308.0124816894531 898.2125091552734L420.0124816894531 898.2125091552734L420.0124816894531 900.2125015258789L532.0124816894531 900.2125015258789" stroke="#323232" stroke-width="2" fill="none" marker-end="url(#SvgjsMarker1163)"></path><rect id="SvgjsRect1165" width="122" height="16" x="359.0124816894531" y="891.2125053405762" fill="#ffffff"></rect><text id="SvgjsText1166" font-family="微软雅黑" text-anchor="middle" font-size="13px" width="122" fill="#323232" font-weight="400" align="top" anchor="middle" family="微软雅黑" size="13px" weight="400" font-style="" y="889.2625053405761" transform="rotate(0)"><tspan id="SvgjsTspan1167" dy="16" x="420.0124816894531"><tspan id="SvgjsTspan1168" style="text-decoration:;">认证通过跳转到test1</tspan></tspan></text></g><g id="SvgjsG1169" transform="translate(532.0124816894531,850.2125015258789)"><path id="SvgjsPath1170" d="M 0 4Q 0 0 4 0L 26 0Q 30 0 30 4L 30 96Q 30 100 26 100L 4 100Q 0 100 0 96L 0 4Z" stroke="#323232" stroke-width="2" fill-opacity="1" fill="#ffffff"></path></g><g id="SvgjsG1171"><path id="SvgjsPath1172" d="M68.01248168945312 1074.2125091552734L170.51248168945312 1074.2125091552734L170.51248168945312 1074.2125091552734L273.0124816894531 1074.2125091552734" stroke="#323232" stroke-width="2" fill="none" marker-end="url(#SvgjsMarker1173)"></path><rect id="SvgjsRect1175" width="162" height="16" x="89.51248168945312" y="1066.2125091552734" fill="#ffffff"></rect><text id="SvgjsText1176" font-family="微软雅黑" text-anchor="middle" font-size="13px" width="162" fill="#323232" font-weight="400" align="top" anchor="middle" family="微软雅黑" size="13px" weight="400" font-style="" y="1064.2625091552734" transform="rotate(0)"><tspan id="SvgjsTspan1177" dy="16" x="170.51248168945312"><tspan id="SvgjsTspan1178" style="text-decoration:;">localhost:6002/test2/hello</tspan></tspan></text></g><g id="SvgjsG1179" transform="translate(278.0124816894531,1050.2125091552734)"><path id="SvgjsPath1180" d="M 0 4Q 0 0 4 0L 26 0Q 30 0 30 4L 30 96Q 30 100 26 100L 4 100Q 0 100 0 96L 0 4Z" stroke="#323232" stroke-width="2" fill-opacity="1" fill="#ffffff"></path></g><g id="SvgjsG1181"><path id="SvgjsPath1182" d="M308.0124816894531 1073.2125091552734L338.0124816894531 1073.2125091552734L338.0124816894531 1132.2125091552734L308.0124816894531 1132.2125091552734" stroke="#323232" stroke-width="2" fill="none" marker-end="url(#SvgjsMarker1183)"></path><rect id="SvgjsRect1185" width="93" height="32" x="291.5124816894531" y="1086.7125091552734" fill="#ffffff"></rect><text id="SvgjsText1186" font-family="微软雅黑" text-anchor="middle" font-size="13px" width="93" fill="#323232" font-weight="400" align="top" anchor="middle" family="微软雅黑" size="13px" weight="400" font-style="" y="1084.7625091552734" transform="rotate(0)"><tspan id="SvgjsTspan1187" dy="16" x="338.0124816894531"><tspan id="SvgjsTspan1188" style="text-decoration:;">通过cookie校验</tspan></tspan><tspan id="SvgjsTspan1189" dy="16" x="338.0124816894531"><tspan id="SvgjsTspan1190" style="text-decoration:;">是否已经登录</tspan></tspan></text></g><g id="SvgjsG1191"><path id="SvgjsPath1192" d="M294.0124816894531 1185.2125091552734L708.0124816894531 1185.2125091552734L708.0124816894531 1176.0625102996826L1122.0124816894531 1176.0625102996826" stroke="#323232" stroke-width="2" fill="none" marker-end="url(#SvgjsMarker1193)"></path><rect id="SvgjsRect1195" width="187" height="16" x="614.5124816894531" y="1172.6375097274781" fill="#ffffff"></rect><text id="SvgjsText1196" font-family="微软雅黑" text-anchor="middle" font-size="13px" width="187" fill="#323232" font-weight="400" align="top" anchor="middle" family="微软雅黑" size="13px" weight="400" font-style="" y="1170.687509727478" transform="rotate(0)"><tspan id="SvgjsTspan1197" dy="16" x="708.0124816894531"><tspan id="SvgjsTspan1198" style="text-decoration:;">未认证/跳转到认证中心进行认证</tspan></tspan></text></g><g id="SvgjsG1199" transform="translate(1126.0124816894531,1152.4124956130981)"><path id="SvgjsPath1200" d="M 0 4Q 0 0 4 0L 26 0Q 30 0 30 4L 30 187.60003185272217Q 30 191.60003185272217 26 191.60003185272217L 4 191.60003185272217Q 0 191.60003185272217 0 187.60003185272217L 0 4Z" stroke="#323232" stroke-width="2" fill-opacity="1" fill="#ffffff"></path></g><g id="SvgjsG1201"><path id="SvgjsPath1202" d="M1156.0124816894531 1196.1515510590739L1186.0124816894531 1196.1515510590739L1186.0124816894531 1314.2081272440823L1156.0124816894531 1314.2081272440823" stroke="#323232" stroke-width="2" fill="none" marker-end="url(#SvgjsMarker1203)"></path><rect id="SvgjsRect1205" width="104" height="48" x="1134.0124816894531" y="1231.179839151578" fill="#ffffff"></rect><text id="SvgjsText1206" font-family="微软雅黑" text-anchor="middle" font-size="13px" width="104" fill="#323232" font-weight="400" align="top" anchor="middle" family="微软雅黑" size="13px" weight="400" font-style="" y="1229.229839151578" transform="rotate(0)"><tspan id="SvgjsTspan1207" dy="16" x="1186.0124816894531"><tspan id="SvgjsTspan1208" style="text-decoration:;">通过cookie</tspan></tspan><tspan id="SvgjsTspan1209" dy="16" x="1186.0124816894531"><tspan id="SvgjsTspan1210" style="text-decoration:;">去认证中心TGT中</tspan></tspan><tspan id="SvgjsTspan1211" dy="16" x="1186.0124816894531"><tspan id="SvgjsTspan1212" style="text-decoration:;">查询是否已经登录</tspan></tspan></text></g><g id="SvgjsG1213"><path id="SvgjsPath1214" d="M1116.0124816894531 1322.212501525879L712.0124816894531 1322.212501525879L712.0124816894531 1318.2125091552734L308.0124816894531 1318.2125091552734" stroke="#323232" stroke-width="2" fill="none" marker-end="url(#SvgjsMarker1215)"></path><rect id="SvgjsRect1217" width="166" height="16" x="629.0124816894531" y="1314.212501525879" fill="#ffffff"></rect><text id="SvgjsText1218" font-family="微软雅黑" text-anchor="middle" font-size="13px" width="166" fill="#323232" font-weight="400" align="top" anchor="middle" family="微软雅黑" size="13px" weight="400" font-style="" y="1312.2625015258789" transform="rotate(0)"><tspan id="SvgjsTspan1219" dy="16" x="712.0124816894531"><tspan id="SvgjsTspan1220" style="text-decoration:;">并且携带ticket信息：即：ST</tspan></tspan></text></g><g id="SvgjsG1221" transform="translate(278.0124816894531,1248.212532043457)"><path id="SvgjsPath1222" d="M 0 4Q 0 0 4 0L 26 0Q 30 0 30 4L 30 405.00000762939453Q 30 409.00000762939453 26 409.00000762939453L 4 409.00000762939453Q 0 409.00000762939453 0 405.00000762939453L 0 4Z" stroke="#323232" stroke-width="2" fill-opacity="1" fill="#ffffff"></path></g><g id="SvgjsG1223"><path id="SvgjsPath1224" d="M310.0124816894531 1392.2125091552734L719.0124816894531 1392.2125091552734L719.0124816894531 1398.212501525879L1128.0124816894531 1398.212501525879" stroke="#323232" stroke-width="2" fill="none" marker-end="url(#SvgjsMarker1225)"></path><rect id="SvgjsRect1227" width="112" height="16" x="663.0124816894531" y="1387.2125053405762" fill="#ffffff"></rect><text id="SvgjsText1228" font-family="微软雅黑" text-anchor="middle" font-size="13px" width="112" fill="#323232" font-weight="400" align="top" anchor="middle" family="微软雅黑" size="13px" weight="400" font-style="" y="1385.2625053405761" transform="rotate(0)"><tspan id="SvgjsTspan1229" dy="16" x="719.0124816894531"><tspan id="SvgjsTspan1230" style="text-decoration:;">拿着ticket去获校验</tspan></tspan></text></g><g id="SvgjsG1231" transform="translate(1129.0124816894531,1369.212501525879)"><path id="SvgjsPath1232" d="M 0 4Q 0 0 4 0L 26 0Q 30 0 30 4L 30 96Q 30 100 26 100L 4 100Q 0 100 0 96L 0 4Z" stroke="#323232" stroke-width="2" fill-opacity="1" fill="#ffffff"></path></g><g id="SvgjsG1233"><path id="SvgjsPath1234" d="M1129.0124816894531 1442.212501525879L720.0124816894531 1442.212501525879L720.0124816894531 1438.2125091552734L311.0124816894531 1438.2125091552734" stroke-dasharray="3,3" stroke="#323232" stroke-width="2" fill="none" marker-end="url(#SvgjsMarker1235)"></path><rect id="SvgjsRect1237" width="87" height="16" x="676.5124816894531" y="1432.2125053405762" fill="#ffffff"></rect><text id="SvgjsText1238" font-family="微软雅黑" text-anchor="middle" font-size="13px" width="87" fill="#323232" font-weight="400" align="top" anchor="middle" family="微软雅黑" size="13px" weight="400" font-style="" y="1430.2625053405761" transform="rotate(0)"><tspan id="SvgjsTspan1239" dy="16" x="720.0124816894531"><tspan id="SvgjsTspan1240" style="text-decoration:;">返回username</tspan></tspan></text></g><g id="SvgjsG1241"><path id="SvgjsPath1242" d="M311.0124816894531 1461.2125091552734L341.0124816894531 1461.2125091552734L341.0124816894531 1579.2125091552734L311.0124816894531 1579.2125091552734" stroke="#323232" stroke-width="2" fill="none" marker-end="url(#SvgjsMarker1243)"></path><rect id="SvgjsRect1245" width="156" height="64" x="263.0124816894531" y="1488.2125091552734" fill="#ffffff"></rect><text id="SvgjsText1246" font-family="微软雅黑" text-anchor="middle" font-size="13px" width="156" fill="#323232" font-weight="400" align="top" anchor="middle" family="微软雅黑" size="13px" weight="400" font-style="" y="1486.2625091552734" transform="rotate(0)"><tspan id="SvgjsTspan1247" dy="16" x="341.0124816894531"><tspan id="SvgjsTspan1248" style="text-decoration:;">在userdetailService中</tspan></tspan><tspan id="SvgjsTspan1249" dy="16" x="341.0124816894531"><tspan id="SvgjsTspan1250" style="text-decoration:;">可以获取username,</tspan></tspan><tspan id="SvgjsTspan1251" dy="16" x="341.0124816894531"><tspan id="SvgjsTspan1252" style="text-decoration:;">如果想要获取用户更多信息</tspan></tspan><tspan id="SvgjsTspan1253" dy="16" x="341.0124816894531"><tspan id="SvgjsTspan1254" style="text-decoration:;">可以插叙你数据库</tspan></tspan></text></g><g id="SvgjsG1255" transform="translate(772.5124816894531,1557.2125396728516)"><path id="SvgjsPath1256" d="M 0 4Q 0 0 4 0L 26 0Q 30 0 30 4L 30 96Q 30 100 26 100L 4 100Q 0 100 0 96L 0 4Z" stroke="#323232" stroke-width="2" fill-opacity="1" fill="#ffffff"></path></g><g id="SvgjsG1257"><path id="SvgjsPath1258" d="M308.0124816894531 1614.0125274658203L540.5124816894531 1614.0125274658203L540.5124816894531 1616.0125274658203L773.0124816894531 1616.0125274658203" stroke="#323232" stroke-width="2" fill="none" marker-end="url(#SvgjsMarker1259)"></path><rect id="SvgjsRect1261" width="122" height="16" x="479.5124816894531" y="1607.0125274658203" fill="#ffffff"></rect><text id="SvgjsText1262" font-family="微软雅黑" text-anchor="middle" font-size="13px" width="122" fill="#323232" font-weight="400" align="top" anchor="middle" family="微软雅黑" size="13px" weight="400" font-style="" y="1605.0625274658203" transform="rotate(0)"><tspan id="SvgjsTspan1263" dy="16" x="540.5124816894531"><tspan id="SvgjsTspan1264" style="text-decoration:;">认证通过跳转到test2</tspan></tspan></text></g><g id="SvgjsG1265" transform="translate(470.0124816894531,25.012496948242188)"><path id="SvgjsPath1266" d="M 0 0L 160 0L 160 40L 0 40Z" stroke="none" fill="none"></path><g id="SvgjsG1267"><text id="SvgjsText1268" font-family="微软雅黑" text-anchor="middle" font-size="13px" width="82" fill="#323232" font-weight="400" align="middle" anchor="middle" family="微软雅黑" size="13px" weight="400" font-style="" y="10.05" transform="rotate(0)"><tspan id="SvgjsTspan1269" dy="16" x="80"><tspan id="SvgjsTspan1270" style="text-decoration:;">CAS 认证流程</tspan></tspan></text></g></g></svg>